<svg xmlns="http://www.w3.org/2000/svg" width="378.101" height="58.309" data-name="그룹 103">
    <defs>
        <clipPath id="a">
            <path fill="none" d="M0 0h378.101v58.309H0z" data-name="사각형 209"/>
        </clipPath>
    </defs>
    <g clip-path="url(#a)" data-name="그룹 94">
        <path fill="#dc000c" d="M338.735 43.429a15.555 15.555 0 0 1-1.091 2.352h26.881a31.527 31.527 0 0 0 4.5-8.256l.757-2.079h-28.141Z" data-name="패스 17"/>
        <path fill="#dc000c" d="M378.101 12.581h-28.139l-.317.872-3.152 8.661h28.139Z" data-name="패스 18"/>
        <path fill="#dc000c" d="M324.116 53.665H3.222L0 58.308h339.34a31.583 31.583 0 0 0 23.978-11.03h-26.646a15.55 15.55 0 0 1-12.556 6.387" data-name="패스 19"/>
        <path fill="#dc000c" d="m345.949 23.612-3.762 10.336h28.138l3.762-10.336Z" data-name="패스 20"/>
        <path fill="#302d2c" d="M49.515 26.856H31.598l-1.079 2.967h13.64a2.853 2.853 0 0 1 2.448 1.272 2.8 2.8 0 0 1 .366 2.736l-2.543 7.013a5.711 5.711 0 0 1-2.177 2.851 5.97 5.97 0 0 1-3.446 1.041H16.146l2.161-5.973h17.915l1.078-2.967H23.66a2.852 2.852 0 0 1-2.447-1.272 2.793 2.793 0 0 1-.366-2.738l2.543-6.975a5.813 5.813 0 0 1 2.177-2.871 5.89 5.89 0 0 1 3.449-1.054h22.657Z" data-name="패스 21"/>
        <path fill="#302d2c" d="m46.009 44.735 8.67-23.852h22.58a2.971 2.971 0 0 1 2.775 4.008l-2.543 6.974a5.873 5.873 0 0 1-5.588 3.931H58.185l-3.237 8.94Zm13.718-14.1h9.671l1.349-3.776h-9.634Z" data-name="패스 22"/>
        <path fill="#302d2c" d="M107.933 26.856h-17.92l-1.08 3.083h14.912l-1.965 4.97H86.969l-1.271 3.853h17.879l-2.158 5.972H74.562l8.671-23.848h26.857Z" data-name="패스 23"/>
        <path fill="#302d2c" d="M137.794 26.856h-17.918l-1.079 3.083h14.912l-1.965 4.97h-14.912l-1.271 3.853h17.879l-2.158 5.972h-26.858l8.67-23.852h26.857Z" data-name="패스 24"/>
        <path fill="#302d2c" d="M164.883 20.886a2.969 2.969 0 0 1 2.773 4.007l-5.779 15.914a5.873 5.873 0 0 1-5.588 3.93h-22l8.67-23.852Zm-19.5 17.879h8.284l4.354-11.907h-8.284Z" data-name="패스 25"/>
        <path fill="#302d2c" d="m173.089 44.736 8.666-23.85h22.58a2.97 2.97 0 0 1 2.774 4.007l-2.543 6.975a5.872 5.872 0 0 1-5.588 3.93h-.655l4.547 8.94h-8.94l-4.547-8.94h-4.118l-3.236 8.94Zm15.221-17.88-1.388 3.776h9.6l1.387-3.776Z" data-name="패스 26"/>
        <path fill="#302d2c" d="m202.412 44.736 7.245-19.921a5.807 5.807 0 0 1 2.177-2.871 5.89 5.89 0 0 1 3.449-1.059h22.658l-8.67 23.852h-8.978l2.2-5.972h-8.939l-2.2 5.972Zm15.452-17.88-2.158 5.972h8.94l2.157-5.972Z" data-name="패스 27"/>
        <path fill="#302d2c" d="M262.175 26.856h-15.336l-4.354 11.907h15.335l-2.158 5.972h-20.036a2.985 2.985 0 0 1-2.774-4.007l5.78-15.914a5.873 5.873 0 0 1 5.588-3.928h20.114Z" data-name="패스 28"/>
        <path fill="#302d2c" d="m258.283 44.735 8.67-23.813h8.94l-8.67 23.813Z" data-name="패스 29"/>
        <path fill="#302d2c" d="m270.229 44.735 8.67-23.852h8.978l4.586 11.945 4.353-11.942h8.94l-8.67 23.852h-8.979l-4.586-11.907-4.354 11.907Z" data-name="패스 30"/>
        <path fill="#302d2c" d="M333.46 26.856h-17.917l-4.316 11.907h8.939l2.158-5.934h8.939l-2.89 7.977a5.817 5.817 0 0 1-2.175 2.87 5.89 5.89 0 0 1-3.449 1.059h-22.658l7.244-19.921a5.813 5.813 0 0 1 2.177-2.871 5.89 5.89 0 0 1 3.449-1.059h22.657Z" data-name="패스 31"/>
        <path fill="#302d2c" d="M26.81 14.485 32.074 0h5.452l-2.5 6.88L42.674 0h5.429l-8.307 7.161 3.042 7.324h-5.452l-2.644-6.856-2.5 6.856Z" data-name="패스 32"/>
        <path fill="#302d2c" d="m65.138 0-4.4 12.1a3.567 3.567 0 0 1-3.393 2.387h-13.22l4.4-12.1A3.567 3.567 0 0 1 51.917 0ZM50.864 10.857h4.891l2.644-7.23h-4.891Z" data-name="패스 33"/>
        <path fill="#302d2c" d="M61.627 14.484 66.892 0h13.712a1.7 1.7 0 0 1 1.474.772 1.714 1.714 0 0 1 .21 1.661l-1.544 4.235a3.567 3.567 0 0 1-3.392 2.387h-.4l2.761 5.429h-5.427l-2.761-5.429h-2.5l-1.966 5.429ZM70.87 3.627l-.843 2.293h5.827l.842-2.293Z" data-name="패스 34"/>
        <path fill="#302d2c" d="M99.628 3.627H88.747L88.092 5.5h9.056l-1.193 3.019h-9.056l-.772 2.34h10.857l-1.311 3.627H79.364L84.629 0h16.311Z" data-name="패스 35"/>
        <path fill="#302d2c" d="m97.428 14.484 4.4-12.1a3.532 3.532 0 0 1 1.321-1.74A3.577 3.577 0 0 1 105.243 0h13.76l-5.27 14.484h-5.452l1.333-3.627h-5.429l-1.334 3.627Zm9.383-10.857-1.31 3.627h5.432l1.31-3.627Z" data-name="패스 36"/>
    </g>
</svg>
